PathFileType	4	(X/Y/Z)	Patient4_TMGait_0pt4_01_left_39.trc.trc
DataRate	CameraRate	NumFrames	NumMarkers	Units	OrigDataRate	OrigDataStartFrame	OrigNumFrames
73.298429319372	73.298429319372	5	33	mm	73.298429319372	89	       141
Frame#	Time	Sacral			L.Shoulder			Chest			R.Shoulder			Neck			R.ASIS			L.ASIS			R.Thigh.Superior			R.Thigh.Lateral			R.Thigh.Inferior			R.Patella			L.Thigh.Superior			L.Thigh.Lateral			L.Thigh.Inferior			L.Patella			L.Shank.Superior			L.Shank.Lateral			L.Shank.Inferior			R.Shank.Superior			R.Shank.Lateral			R.Shank.Inferior			R.Heel			R.Midfoot.Superior			R.Midfoot.Lateral			R.Toe			L.Heel			L.Midfoot.Lateral			L.Midfoot.Superior			L.Toe			L.Elbow			L.Wrist			R.Elbow			R.Wrist			
		X1	Y1	Z1	X2	Y2	Z2	X3	Y3	Z3	X4	Y4	Z4	X5	Y5	Z5	X6	Y6	Z6	X7	Y7	Z7	X8	Y8	Z8	X9	Y9	Z9	X10	Y10	Z10	X11	Y11	Z11	X12	Y12	Z12	X13	Y13	Z13	X14	Y14	Z14	X15	Y15	Z15	X16	Y16	Z16	X17	Y17	Z17	X18	Y18	Z18	X19	Y19	Z19	X20	Y20	Z20	X21	Y21	Z21	X22	Y22	Z22	X23	Y23	Z23	X24	Y24	Z24	X25	Y25	Z25	X26	Y26	Z26	X27	Y27	Z27	X28	Y28	Z28	X29	Y29	Z29	X30	Y30	Z30	X31	Y31	Z31	X32	Y32	Z32	X33	Y33	Z33	

89	50.050571428571	825.997428229258	997.891331352257	470.493588152569	1006.193884110898	1432.714924425486	293.132189634044	1101.236129916498	1364.232423992778	459.132514708352	1007.318616222453	1435.368876698814	628.734534452349	988.522734709000	1493.597209426178	449.332916043417	1056.197659846258	945.364828398055	594.003000836714	1045.618947621119	959.907481337596	318.465728510038	1108.925400258120	746.231055766154	566.738301652365	1034.334320796366	634.320249836319	629.372353274304	1114.923746054888	585.247659874455	549.889503644912	1119.873745660685	497.573302875629	557.851922250828	1090.182776265929	741.957434521936	345.455239522656	1008.413639033670	625.307748623773	276.487738992903	1096.268925039733	543.995581409677	336.084533641231	1091.494924236783	459.794118967049	332.234730587540	1028.382678274812	399.011621690633	327.459655895422	892.516103021967	340.949559681402	281.666634399147	892.227856504255	213.144581547047	341.017760812183	1093.609911807776	407.969527484325	568.827643856394	1024.230041554367	304.631089668159	633.952881260825	1069.627013541544	208.884208439201	574.551598494924	940.653234294102	41.875913617735	550.132461155461	1110.147056216947	98.110470560748	584.826951169276	1023.963067073485	37.007486370936	625.082316484500	1231.333358619919	49.464466730706	613.332622071227	711.438300326497	122.208853991029	382.430613235575	775.863021074320	83.822482523195	305.089163754342	876.101829055204	112.432635216640	325.905224470515	972.670683705499	34.363110612240	305.253328933511	1015.595234845458	1082.113398482488	171.638491547479	1159.288435779301	862.986702070846	150.438789918036	951.406847488195	1094.968243454406	754.969537779508	1059.958689691075	857.231703933814	765.171010174224	
90	50.064214285714	825.434762212202	997.358636369898	474.530161077756	1003.637520403450	1432.735521641597	296.173123098212	1100.333354848071	1364.128098517765	461.198285708182	1007.967583497805	1434.892205936429	631.809578447652	987.527022962478	1493.412563592819	452.709421300914	1056.603397581148	945.674792159104	596.362153759497	1043.975302009882	959.545776757186	321.050983612007	1108.191593407847	745.800011275347	569.019315983208	1033.146025883162	634.024133238596	631.505637055379	1113.029029893532	584.725145711013	551.560147661749	1117.342175906902	496.954947113029	559.022861451191	1094.911788816074	744.846347860330	347.844507181409	1018.536360047260	626.046544317707	277.576243290423	1109.291420023879	547.091521018847	336.919388988959	1106.109498131184	461.691901489525	332.269975975928	1041.145735990868	400.790910010608	327.513927599204	903.112015139657	347.657026826656	281.971115194114	898.698863912322	219.602071775873	340.441083266016	1090.731337023019	407.345071082402	569.787919588211	1021.109288022630	304.137088268028	634.695653498495	1065.440418551319	208.391498452318	574.772092301577	935.274827203575	41.910982715818	550.264354822389	1104.903411825619	97.938576280011	584.908913974331	1018.587631018395	36.995821017149	625.224183852254	1226.039667908226	49.134164199175	613.435458080018	714.546516037235	138.752569920545	382.150154051035	776.083511438154	95.528287339487	304.971403385701	878.052456359114	117.198810014630	325.271463678417	967.819530431223	33.172343114055	305.346763747581	1008.436772291555	1081.640397624931	175.268460567506	1143.278070682273	857.079738716026	153.267539811984	961.781218119926	1093.359566555409	759.927461019745	1080.199600545043	860.312843244180	767.043026741562	
91	50.077857142857	824.774848241160	996.812976103629	478.509086467528	1000.935402717424	1432.600089200866	298.922856775276	1099.365778231354	1363.986693304397	462.954177374274	1008.608975466660	1434.471678766113	634.572572567531	986.506548912409	1493.180405175505	455.756307682515	1056.923038932898	945.885082653890	598.629851573474	1042.195722787554	959.083052612001	323.576845076973	1107.414250469931	745.320091579913	571.129482100701	1032.011458372650	633.657865751255	633.555650332817	1111.133800626455	584.152861452037	553.088633131438	1114.837853090197	496.270578392669	560.111809842352	1099.471717459627	748.047944746412	349.996698655847	1028.308353589002	627.294450903965	278.579334091981	1121.864640239497	550.872137031497	337.616163212019	1120.490087280047	464.431431370188	332.383657468147	1053.975479974618	403.217106358102	327.644205685772	914.074360430793	354.688868937612	282.298827567457	905.780797271468	226.533804733379	340.089445611536	1087.835304732797	406.658999896823	570.669176328385	1017.954414852634	303.601558176994	635.396490080237	1061.165126768084	207.849569949344	574.933366428264	929.795018959522	41.930880646657	550.371247428084	1099.561692603406	97.723298432408	584.956304696059	1013.105746215842	36.962861948915	625.343572613777	1220.649467841955	48.723088296545	613.520270973954	718.852534528114	155.689937274002	382.154275705748	777.317248592178	107.959366894917	305.050016503837	880.713524670410	122.581157036576	324.922418578191	963.489453210423	31.987105004480	305.455291540691	1000.979833754318	1081.041457637277	178.726819696538	1126.966475728767	851.515496173646	156.324508319239	972.272455626809	1092.140984197260	764.602030195656	1100.646620922802	864.395518442091	768.370855756157	
92	50.091500000000	824.051004617403	996.320054664883	482.384489905521	998.155238273740	1432.353121333026	301.370829073233	1098.365831026605	1363.851770807191	464.405425540515	1009.259889908570	1434.173289279031	637.007307971918	985.489815006231	1492.949184506807	458.447589834593	1057.153962642764	946.002697799515	600.813836013233	1040.362596769713	958.611583248997	326.028649956289	1106.610826290137	744.816184176912	573.052084517635	1030.921967542166	633.253605354134	635.503897632181	1109.239993337075	583.548789273385	554.478595790647	1112.350692017765	495.544265422799	561.121616226317	1103.745749221481	751.552279207137	351.944463468483	1037.503268261495	629.070084568081	279.533928338371	1133.744158910696	555.311845741769	338.204233891818	1134.365556402961	467.982515200440	332.567222028618	1066.599684825719	406.274281891867	327.861342099514	925.123255753395	361.886699115802	282.700345425360	913.349656572193	233.727100831519	339.997011878305	1084.918504385900	405.939082932853	571.477680241260	1014.762409877614	303.058039891526	636.070962644635	1056.820173013160	207.288626887150	575.056206544652	924.255755300100	41.940153804989	550.465401303408	1094.153526894315	97.497270945772	584.982917167387	1007.559526726761	36.919802665662	625.451351020399	1215.198694506849	48.275368476397	613.595683727588	724.273822458931	172.328750376361	382.484654236305	779.645627434060	120.592934067542	305.354042830598	884.150079748962	128.423270828401	324.859138919311	960.065418801142	30.927500038681	305.553774609050	993.211118575123	1080.360471792696	182.075851556348	1110.402304170915	846.342900417322	159.588611864552	982.790853473330	1091.370891113209	768.911964463060	1121.168720823593	869.600964166406	769.082830580588	
93	50.105142857143	823.298507995729	995.944633659597	486.126060918035	995.368931770524	1432.045663894748	303.521147063290	1097.369933578918	1363.766971762262	465.569860176507	1009.944955753644	1434.057791563847	639.111646257176	984.507737534522	1492.767360788371	460.774022908757	1057.299356096455	946.044913997756	602.919264993569	1038.534631076157	958.223481611385	328.394934523601	1105.782015044098	744.306626894490	574.788377969351	1029.829789904387	632.843513815027	637.331239644387	1107.318966186677	582.929912974713	555.739544422833	1109.838915023290	494.802658759782	562.047803542643	1107.630826660570	755.337348643558	353.745296900030	1045.953151420093	631.365789924997	280.469983390372	1144.748214949040	560.350160208630	338.715700327570	1147.512461371044	472.277348021940	332.802673920323	1078.793480488570	409.913251034938	328.159797487288	936.017080172668	369.056425312698	283.216857671942	921.327876842733	240.921853589548	340.165070810038	1081.951678233168	405.215963464929	572.216534230060	1011.507775763188	302.537671876690	636.723557522263	1052.412819496498	206.739782463742	575.158367701208	918.692398819480	41.942683301112	550.555789958830	1088.707983407171	97.286101175796	585.001320951924	1001.985347764327	36.876281759286	625.555255126383	1209.716932275261	47.831801986186	613.667450126860	730.725822695313	187.897395646142	383.153731140879	783.173026250757	132.805764540388	305.888083205341	888.488867618510	134.490391261640	325.047520750960	958.043854994463	30.126188353060	305.603078760463	985.123504035153	1079.652960724542	185.385964762165	1093.624920912795	841.610396187616	163.032105883096	993.247340355547	1091.089787989370	772.786392306889	1141.630149834148	876.036463114313	769.115724593907	
